<svg width="38" height="38" viewBox="0 0 38 38" fill="none" xmlns="http://www.w3.org/2000/svg">
<path d="M0 10C0 4.47715 4.47715 0 10 0H25.9896C32.2381 0 36.9562 5.66657 35.8242 11.8116L32.5084 29.8116C31.6344 34.5559 27.498 38 22.6739 38H10C4.47715 38 0 33.5228 0 28V10Z" fill="white"/>
<path d="M14.8927 25.2072C14.4055 24.7389 14.4055 23.9594 14.8927 23.4911L17.3149 21.1629C18.543 19.9824 18.543 18.0176 17.3149 16.8371L14.8927 14.5089C14.4055 14.0406 14.4055 13.2611 14.8927 12.7928C15.3534 12.35 16.0815 12.35 16.5422 12.7928L20.7498 16.8371C21.9779 18.0176 21.9779 19.9824 20.7498 21.1629L16.5422 25.2072C16.0815 25.65 15.3534 25.65 14.8927 25.2072Z" fill="#EA0000"/>
</svg>
